<svg xmlns="http://www.w3.org/2000/svg" viewBox="0 0 24 24">
  <path d="M5 3C3.895 3 3 3.895 3 5L3 6L3 7L3 19C3 20.103 3.897 21 5 21L16.171875 21L14.171875 19L5 19L5 7L19 7L18.998047 14.171875L21 16.171875L21 7L21 6L21 5C21 3.895 20.105 3 19 3L5 3 z M 7 10L7 12L9 12L9 10L7 10 z M 11 10L11 12L17 12L17 10L11 10 z M 7 14L7 16L9 16L9 14L7 14 z M 11 14L11 16L13 16L13 14L11 14 z M 15 15L15 17L20.146484 22.146484L22.146484 20.146484L17 15L15 15 z M 22.853516 20.853516L20.853516 22.853516L21.853516 23.853516C22.048516 24.048516 22.365547 24.048516 22.560547 23.853516L23.853516 22.560547C24.048516 22.364547 24.048516 22.048516 23.853516 21.853516L22.853516 20.853516 z" fill="#06897C" />
</svg>